<svg width="1940" height="343" viewBox="0 0 1940 343" fill="none" xmlns="http://www.w3.org/2000/svg">
<g clip-path="url(#clip0_880_619)">
<rect width="1940" height="343" fill="white"/>
<rect x="-3.8999" width="80.3148" height="20.5514" rx="3" fill="#E14646" fill-opacity="0.3"/>
<path d="M3.75297 14V3.81818H7.19332C7.98877 3.81818 8.64171 3.95407 9.15212 4.22585C9.66254 4.49432 10.0404 4.86387 10.2856 5.33452C10.5309 5.80516 10.6535 6.34044 10.6535 6.94034C10.6535 7.54025 10.5309 8.07221 10.2856 8.53622C10.0404 9.00024 9.6642 9.36482 9.15709 9.62997C8.64999 9.89181 8.00203 10.0227 7.2132 10.0227H4.42911V8.90909H7.17343C7.71699 8.90909 8.15449 8.82955 8.48593 8.67045C8.82068 8.51136 9.06263 8.28598 9.21178 7.99432C9.36424 7.69934 9.44047 7.34801 9.44047 6.94034C9.44047 6.53267 9.36424 6.17637 9.21178 5.87145C9.05932 5.56652 8.81571 5.3312 8.48096 5.16548C8.1462 4.99645 7.70373 4.91193 7.15354 4.91193H4.98593V14H3.75297ZM8.54559 9.42614L11.0513 14H9.61945L7.15354 9.42614H8.54559ZM15.6686 14.1591C14.9328 14.1591 14.2981 13.9967 13.7645 13.6719C13.2342 13.3438 12.8249 12.8864 12.5365 12.2997C12.2515 11.7098 12.109 11.0237 12.109 10.2415C12.109 9.45928 12.2515 8.76989 12.5365 8.1733C12.8249 7.57339 13.2259 7.10606 13.7397 6.77131C14.2567 6.43324 14.8599 6.2642 15.5493 6.2642C15.947 6.2642 16.3398 6.33049 16.7276 6.46307C17.1154 6.59564 17.4684 6.81108 17.7865 7.10938C18.1047 7.40436 18.3583 7.79545 18.5472 8.28267C18.7361 8.76989 18.8306 9.36979 18.8306 10.0824V10.5795H12.9442V9.56534H17.6374C17.6374 9.13447 17.5512 8.75 17.3789 8.41193C17.2098 8.07386 16.9679 7.80705 16.653 7.61151C16.3415 7.41596 15.9736 7.31818 15.5493 7.31818C15.082 7.31818 14.6776 7.43419 14.3362 7.66619C13.9982 7.89489 13.738 8.19318 13.5557 8.56108C13.3734 8.92898 13.2823 9.32339 13.2823 9.74432V10.4205C13.2823 10.9972 13.3817 11.486 13.5806 11.8871C13.7827 12.2848 14.0628 12.5881 14.4208 12.7969C14.7787 13.0024 15.1947 13.1051 15.6686 13.1051C15.9769 13.1051 16.2553 13.062 16.5039 12.9759C16.7558 12.8864 16.9728 12.7538 17.1551 12.5781C17.3374 12.3991 17.4783 12.1771 17.5777 11.9119L18.7112 12.2301C18.5919 12.6146 18.3914 12.9527 18.1097 13.2443C17.828 13.5327 17.48 13.758 17.0657 13.9205C16.6514 14.0795 16.1857 14.1591 15.6686 14.1591ZM23.4989 14.1591C22.8625 14.1591 22.3007 13.9983 21.8135 13.6768C21.3263 13.352 20.9451 12.8946 20.6701 12.3047C20.395 11.7114 20.2574 11.0104 20.2574 10.2017C20.2574 9.39962 20.395 8.7036 20.6701 8.11364C20.9451 7.52367 21.328 7.06794 21.8185 6.74645C22.309 6.42495 22.8758 6.2642 23.5188 6.2642C24.0159 6.2642 24.4087 6.34706 24.697 6.51278C24.9887 6.67519 25.2108 6.8608 25.3632 7.0696C25.519 7.27509 25.64 7.44413 25.7262 7.5767H25.8256V3.81818H26.9989V14H25.8654V12.8267H25.7262C25.64 12.9659 25.5174 13.1416 25.3583 13.3537C25.1992 13.5625 24.9721 13.7498 24.6772 13.9155C24.3822 14.0779 23.9894 14.1591 23.4989 14.1591ZM23.658 13.1051C24.1286 13.1051 24.5264 12.9825 24.8512 12.7372C25.176 12.4886 25.4229 12.1456 25.5919 11.7081C25.761 11.2673 25.8455 10.7585 25.8455 10.1818C25.8455 9.61174 25.7626 9.11293 25.5969 8.68537C25.4312 8.2545 25.1859 7.91974 24.8611 7.68111C24.5363 7.43916 24.1353 7.31818 23.658 7.31818C23.1608 7.31818 22.7465 7.44579 22.4151 7.70099C22.087 7.95289 21.84 8.29593 21.6743 8.73011C21.5119 9.16098 21.4307 9.64489 21.4307 10.1818C21.4307 10.7254 21.5136 11.2192 21.6793 11.6634C21.8483 12.1042 22.0969 12.4555 22.425 12.7173C22.7565 12.9759 23.1675 13.1051 23.658 13.1051ZM36.5692 6.36364V7.35795H32.6118V6.36364H36.5692ZM33.7652 4.53409H34.9385V11.8125C34.9385 12.1439 34.9866 12.3925 35.0827 12.5582C35.1821 12.7206 35.3081 12.83 35.4605 12.8864C35.6163 12.9394 35.7804 12.9659 35.9527 12.9659C36.082 12.9659 36.188 12.9593 36.2709 12.946C36.3538 12.9295 36.4201 12.9162 36.4698 12.9062L36.7084 13.9602C36.6289 13.9901 36.5178 14.0199 36.3753 14.0497C36.2328 14.0829 36.0522 14.0994 35.8334 14.0994C35.502 14.0994 35.1772 14.0282 34.859 13.8857C34.5441 13.7431 34.2823 13.526 34.0735 13.2344C33.868 12.9427 33.7652 12.5748 33.7652 12.1307V4.53409ZM40.5813 14.179C40.0974 14.179 39.6582 14.0878 39.2638 13.9055C38.8694 13.7199 38.5562 13.4531 38.3242 13.1051C38.0922 12.7538 37.9762 12.3295 37.9762 11.8324C37.9762 11.3949 38.0623 11.0402 38.2347 10.7685C38.407 10.4934 38.6374 10.2779 38.9257 10.1222C39.2141 9.96638 39.5323 9.85038 39.8803 9.77415C40.2316 9.6946 40.5846 9.63163 40.9392 9.58523C41.4032 9.52557 41.7794 9.48082 42.0678 9.45099C42.3594 9.41785 42.5716 9.36316 42.7041 9.28693C42.84 9.2107 42.908 9.07812 42.908 8.8892V8.84943C42.908 8.3589 42.7737 7.97775 42.5053 7.70597C42.2401 7.43419 41.8374 7.2983 41.2972 7.2983C40.7371 7.2983 40.2979 7.42093 39.9797 7.66619C39.6615 7.91146 39.4378 8.1733 39.3085 8.4517L38.1949 8.05398C38.3938 7.58996 38.6589 7.22869 38.9904 6.97017C39.3251 6.70833 39.6897 6.52604 40.0841 6.4233C40.4818 6.31723 40.8729 6.2642 41.2574 6.2642C41.5027 6.2642 41.7844 6.29403 42.1026 6.35369C42.4241 6.41004 42.734 6.5277 43.0323 6.70668C43.3339 6.88565 43.5841 7.15578 43.783 7.51705C43.9818 7.87831 44.0813 8.36222 44.0813 8.96875V14H42.908V12.9659H42.8483C42.7688 13.1316 42.6362 13.3089 42.4506 13.4979C42.265 13.6868 42.0181 13.8475 41.7098 13.9801C41.4016 14.1127 41.0254 14.179 40.5813 14.179ZM40.7603 13.125C41.2243 13.125 41.6154 13.0339 41.9335 12.8516C42.255 12.6693 42.497 12.4339 42.6594 12.1456C42.8251 11.8572 42.908 11.554 42.908 11.2358V10.1619C42.8583 10.2216 42.7489 10.2763 42.5799 10.326C42.4141 10.3724 42.2219 10.4138 42.0032 10.4503C41.7877 10.4834 41.5773 10.5133 41.3718 10.5398C41.1696 10.563 41.0055 10.5829 40.8796 10.5994C40.5746 10.6392 40.2896 10.7038 40.0245 10.7933C39.7626 10.8795 39.5505 11.0104 39.3881 11.1861C39.229 11.3584 39.1495 11.5937 39.1495 11.892C39.1495 12.2997 39.3003 12.608 39.6019 12.8168C39.9068 13.0223 40.2929 13.125 40.7603 13.125ZM49.3052 17.0227C48.7384 17.0227 48.2512 16.9498 47.8435 16.804C47.4359 16.6615 47.0961 16.4725 46.8244 16.2372C46.5559 16.0052 46.3421 15.7566 46.183 15.4915L47.1177 14.8352C47.2237 14.9744 47.358 15.1335 47.5204 15.3125C47.6828 15.4948 47.9048 15.6522 48.1866 15.7848C48.4716 15.9207 48.8445 15.9886 49.3052 15.9886C49.9217 15.9886 50.4304 15.8395 50.8315 15.5412C51.2325 15.2429 51.433 14.7756 51.433 14.1392V12.5881H51.3336C51.2474 12.7273 51.1248 12.8996 50.9657 13.1051C50.8099 13.3073 50.5845 13.4879 50.2896 13.647C49.9979 13.8028 49.6035 13.8807 49.1063 13.8807C48.4898 13.8807 47.9363 13.7348 47.4458 13.4432C46.9586 13.1515 46.5725 12.7273 46.2874 12.1705C46.0057 11.6136 45.8648 10.9375 45.8648 10.142C45.8648 9.35985 46.0024 8.67874 46.2775 8.09872C46.5526 7.51539 46.9354 7.06463 47.4259 6.74645C47.9164 6.42495 48.4832 6.2642 49.1262 6.2642C49.6234 6.2642 50.0178 6.34706 50.3094 6.51278C50.6044 6.67519 50.8298 6.8608 50.9856 7.0696C51.1447 7.27509 51.2673 7.44413 51.3535 7.5767H51.4728V6.36364H52.6063V14.2188C52.6063 14.875 52.4572 15.4086 52.1589 15.8196C51.8639 16.2339 51.4662 16.5372 50.9657 16.7294C50.4685 16.925 49.915 17.0227 49.3052 17.0227ZM49.2654 12.8267C49.736 12.8267 50.1338 12.719 50.4586 12.5036C50.7834 12.2881 51.0303 11.9782 51.1994 11.5739C51.3684 11.1695 51.4529 10.6856 51.4529 10.1222C51.4529 9.57197 51.37 9.08641 51.2043 8.66548C51.0386 8.24455 50.7933 7.91477 50.4685 7.67614C50.1437 7.4375 49.7427 7.31818 49.2654 7.31818C48.7682 7.31818 48.3539 7.44413 48.0225 7.69602C47.6944 7.94792 47.4475 8.28598 47.2817 8.71023C47.1193 9.13447 47.0381 9.60511 47.0381 10.1222C47.0381 10.6525 47.121 11.1214 47.2867 11.5291C47.4557 11.9335 47.7043 12.2517 48.0324 12.4837C48.3639 12.7124 48.7749 12.8267 49.2654 12.8267Z" fill="#37352F"/>
<path d="M-4 0H1944V343H-4V0Z" fill="#CCFFE2"/>
<path fill-rule="evenodd" clip-rule="evenodd" d="M1943.55 237.166V343H475.379C535.532 293.689 599.915 248.214 668.419 207.173C1082.63 -40.9786 1540.57 29.3671 1943.55 237.166Z" fill="#FFECEA"/>
<path fill-rule="evenodd" clip-rule="evenodd" d="M1373.87 169.08C1373.93 113.585 1408.92 58.5251 1467.21 46.2885C1518.96 35.4248 1554.8 83.7468 1584.16 124.932C1611.76 163.654 1640.07 210.578 1611.16 248.223C1579.64 289.281 1518.29 294.69 1466.96 277.571C1415.17 260.296 1373.82 220.063 1373.87 169.08Z" fill="#0018A4"/>
<path fill-rule="evenodd" clip-rule="evenodd" d="M135.668 64.0355C166.613 63.0843 197.932 81.711 205.784 114.146C212.755 142.942 186.443 163.876 163.996 181.054C142.892 197.204 117.226 213.893 95.7253 198.369C72.2753 181.438 68.1762 147.165 76.8156 118.11C85.5343 88.7876 107.239 64.9093 135.668 64.0355Z" fill="white"/>
<rect x="-4" width="1944" height="100" fill="#0018A4"/>
<path d="M-71.1562 39.532V45.928H-68.2452C-66.4412 45.928 -65.0472 44.534 -65.0472 42.73C-65.0472 40.926 -66.4412 39.532 -68.2452 39.532H-71.1562ZM-71.1562 38.876H-68.2452C-66.1132 38.876 -64.3912 40.598 -64.3912 42.73C-64.3912 44.862 -66.1132 46.584 -68.2452 46.584H-71.1562V51.504H-68.2452C-63.3252 51.504 -59.4712 47.65 -59.4712 42.73C-59.4712 37.81 -63.3252 33.956 -68.2452 33.956H-71.1562V38.876ZM-76.7322 52.16V62H-77.3882V33.3H-68.2452C-62.9972 33.3 -58.8152 37.482 -58.8152 42.73C-58.8152 47.978 -62.9972 52.16 -68.2452 52.16H-71.1562V62H-71.8122V52.16H-76.7322ZM-76.7322 39.532V45.928H-71.8122V39.532H-76.7322ZM-71.8122 33.956H-76.7322V38.876H-71.8122V33.956ZM-71.8122 46.584H-76.7322V51.504H-71.8122V46.584ZM-46.3333 62.492C-52.6063 62.492 -57.6903 57.408 -57.6903 51.135C-57.6903 44.862 -52.6063 39.778 -46.3333 39.778C-40.0603 39.778 -34.9763 44.862 -34.9763 51.135C-34.9763 57.408 -40.0603 62.492 -46.3333 62.492ZM-46.3333 61.836C-40.4293 61.836 -35.6323 57.039 -35.6323 51.135C-35.6323 45.231 -40.4293 40.434 -46.3333 40.434C-52.2373 40.434 -57.0343 45.231 -57.0343 51.135C-57.0343 57.039 -52.2373 61.836 -46.3333 61.836ZM-46.3333 56.916C-49.5313 56.916 -52.1143 54.333 -52.1143 51.135C-52.1143 47.937 -49.5313 45.354 -46.3333 45.354C-43.1353 45.354 -40.5523 47.937 -40.5523 51.135C-40.5523 54.333 -43.1353 56.916 -46.3333 56.916ZM-46.3333 56.26C-43.5043 56.26 -41.2083 53.964 -41.2083 51.135C-41.2083 48.306 -43.5043 46.01 -46.3333 46.01C-49.1623 46.01 -51.4583 48.306 -51.4583 51.135C-51.4583 53.964 -49.1623 56.26 -46.3333 56.26ZM-33.2664 51.135C-33.2664 44.862 -28.1824 39.778 -21.9094 39.778C-16.9074 39.778 -12.6844 42.976 -11.1674 47.486L-24.4924 55.563C-23.7134 56.014 -22.8524 56.26 -21.9094 56.26C-19.8594 56.26 -18.0964 55.03 -17.2764 53.308L-16.6614 53.595C-17.5634 55.563 -19.5724 56.916 -21.9094 56.916C-23.0984 56.916 -24.2054 56.547 -25.1074 55.932L-29.5354 58.638C-27.6084 60.606 -24.9024 61.836 -21.9094 61.836C-17.6454 61.836 -13.9144 59.294 -12.1924 55.645L-11.6184 55.932C-13.4224 59.827 -17.3584 62.492 -21.9094 62.492C-28.1824 62.492 -33.2664 57.408 -33.2664 51.135ZM-32.6104 51.135C-32.6104 52.324 -32.4054 53.431 -32.0774 54.497L-27.6494 51.791C-27.6904 51.586 -27.6904 51.34 -27.6904 51.135C-27.6904 47.937 -25.1074 45.354 -21.9094 45.354C-20.7204 45.354 -19.5724 45.723 -18.6704 46.338L-14.2834 43.673C-16.2104 41.664 -18.9164 40.434 -21.9094 40.434C-27.8134 40.434 -32.6104 45.231 -32.6104 51.135ZM-31.8314 55.112C-31.3804 56.219 -30.7654 57.244 -29.9864 58.146L-25.6814 55.522C-26.5834 54.743 -27.2394 53.677 -27.5264 52.488L-31.8314 55.112ZM-27.0344 51.135V51.422L-19.2854 46.707C-20.0644 46.256 -20.9664 46.01 -21.9094 46.01C-24.7384 46.01 -27.0344 48.306 -27.0344 51.135ZM-26.9524 52.16C-26.7064 53.349 -26.0094 54.415 -25.0664 55.153L-16.8664 50.151C-17.1124 48.962 -17.7684 47.896 -18.7114 47.117L-26.9524 52.16ZM-18.0964 46.789C-17.1944 47.568 -16.5384 48.593 -16.2924 49.823L-11.9464 47.158C-12.3974 46.051 -13.0534 45.067 -13.7914 44.165L-18.0964 46.789ZM-7.12414 40.926H-10.3631V40.27H-7.12414V33.3H-6.46814V40.27H-1.54814V33.3H-0.892136V40.27H2.34686V40.926H-0.892136V45.846H2.34686V46.502H-0.892136V62H-1.54814V46.502H-6.46814V62H-7.12414V46.502H-10.3631V45.846H-7.12414V40.926ZM-1.54814 40.926H-6.46814V45.846H-1.54814V40.926ZM10.896 62V42.689C8.682 44.042 5.976 46.83 5.976 51.709V62H5.32V40.27H5.976V47.732C7.001 44.903 8.6 43.304 10.896 41.951V40.27H11.552V41.582C13.192 40.762 14.955 40.352 16.677 40.352V41.008C14.955 41.008 13.151 41.459 11.552 42.32V49.044C12.495 47.199 14.463 45.928 16.677 45.928V46.584C13.807 46.584 11.552 48.88 11.552 51.709V62H10.896ZM41.1505 40.27L26.9645 71.02H26.2675L28.8095 65.526L25.9395 59.376L20.5685 71.02H19.8715L25.6115 58.597L17.0425 40.27H17.7395L25.9395 57.859L28.7685 51.75L23.4385 40.27H24.1355L29.1375 50.971L34.0575 40.27H34.7545L29.4655 51.709L32.3355 57.859L40.4535 40.27H41.1505ZM29.1785 64.747L32.0075 58.638L29.1375 52.488L26.3085 58.638L29.1785 64.747ZM51.7253 62V40.27H52.3813V62H51.7253ZM57.9573 40.27V62H57.3013V40.27H57.9573ZM57.3013 38.138V31.25H57.9573V38.138H57.3013ZM52.3813 31.25V38.138H51.7253V31.25H52.3813ZM62.1354 62V40.27H62.7914V46.461C63.6934 44.124 65.4564 42.197 67.7114 41.09V40.27H68.3674V40.762C69.5154 40.311 70.7454 40.065 72.0574 40.065C77.5104 40.065 81.9794 44.534 81.9794 49.987V62H81.3234V49.987C81.3234 44.903 77.1414 40.721 72.0574 40.721C70.7454 40.721 69.5154 41.008 68.3674 41.5V47.691C69.1464 46.461 70.4994 45.641 72.0574 45.641C74.4354 45.641 76.4034 47.609 76.4034 49.987V62H75.7474V49.987C75.7474 47.978 74.0664 46.297 72.0574 46.297C70.0484 46.297 68.3674 47.978 68.3674 49.987V62H67.7114V41.828C64.8004 43.386 62.7914 46.461 62.7914 49.987V62H62.1354ZM112.979 55.522L110.355 62H109.699L102.688 44.698L99.654 62H98.998L102.237 43.55L98.588 34.448L93.75 62H93.094L98.137 33.3H98.793L102.442 42.402L104.041 33.3H104.697L112.979 53.882L121.261 33.3H121.917L123.516 42.361L127.165 33.3H127.821L132.864 62H132.208L127.37 34.448L123.721 43.509L126.96 62H126.304L123.27 44.616L116.259 62H115.603L112.979 55.522ZM115.931 61.18L123.065 43.468L121.466 34.448L113.307 54.702L115.931 61.18ZM112.651 54.702L104.492 34.448L102.893 43.55L110.027 61.18L112.651 54.702ZM145.454 62.492C139.181 62.492 134.097 57.408 134.097 51.135C134.097 44.862 139.181 39.778 145.454 39.778C151.727 39.778 156.811 44.862 156.811 51.135C156.811 57.408 151.727 62.492 145.454 62.492ZM145.454 61.836C151.358 61.836 156.155 57.039 156.155 51.135C156.155 45.231 151.358 40.434 145.454 40.434C139.55 40.434 134.753 45.231 134.753 51.135C134.753 57.039 139.55 61.836 145.454 61.836ZM145.454 56.916C142.256 56.916 139.673 54.333 139.673 51.135C139.673 47.937 142.256 45.354 145.454 45.354C148.652 45.354 151.235 47.937 151.235 51.135C151.235 54.333 148.652 56.916 145.454 56.916ZM145.454 56.26C148.283 56.26 150.579 53.964 150.579 51.135C150.579 48.306 148.283 46.01 145.454 46.01C142.625 46.01 140.329 48.306 140.329 51.135C140.329 53.964 142.625 56.26 145.454 56.26ZM161.4 40.926H158.161V40.27H161.4V33.3H162.056V40.27H166.976V33.3H167.632V40.27H170.871V40.926H167.632V45.846H170.871V46.502H167.632V62H166.976V46.502H162.056V62H161.4V46.502H158.161V45.846H161.4V40.926ZM166.976 40.926H162.056V45.846H166.976V40.926ZM173.844 62V40.27H174.5V62H173.844ZM180.076 40.27V62H179.42V40.27H180.076ZM179.42 38.138V31.25H180.076V38.138H179.42ZM174.5 31.25V38.138H173.844V31.25H174.5ZM194.382 62.492C188.109 62.492 183.025 57.408 183.025 51.135C183.025 44.862 188.109 39.778 194.382 39.778C200.655 39.778 205.739 44.862 205.739 51.135C205.739 57.408 200.655 62.492 194.382 62.492ZM194.382 61.836C200.286 61.836 205.083 57.039 205.083 51.135C205.083 45.231 200.286 40.434 194.382 40.434C188.478 40.434 183.681 45.231 183.681 51.135C183.681 57.039 188.478 61.836 194.382 61.836ZM194.382 56.916C191.184 56.916 188.601 54.333 188.601 51.135C188.601 47.937 191.184 45.354 194.382 45.354C197.58 45.354 200.163 47.937 200.163 51.135C200.163 54.333 197.58 56.916 194.382 56.916ZM194.382 56.26C197.211 56.26 199.507 53.964 199.507 51.135C199.507 48.306 197.211 46.01 194.382 46.01C191.553 46.01 189.257 48.306 189.257 51.135C189.257 53.964 191.553 56.26 194.382 56.26ZM208.678 62V40.27H209.334V46.461C210.236 44.124 211.999 42.197 214.254 41.09V40.27H214.91V40.762C216.058 40.311 217.288 40.065 218.6 40.065C224.053 40.065 228.522 44.534 228.522 49.987V62H227.866V49.987C227.866 44.903 223.684 40.721 218.6 40.721C217.288 40.721 216.058 41.008 214.91 41.5V47.691C215.689 46.461 217.042 45.641 218.6 45.641C220.978 45.641 222.946 47.609 222.946 49.987V62H222.29V49.987C222.29 47.978 220.609 46.297 218.6 46.297C216.591 46.297 214.91 47.978 214.91 49.987V62H214.254V41.828C211.343 43.386 209.334 46.461 209.334 49.987V62H208.678ZM251.65 45.764H240.785V45.108H251.65V45.764ZM251.65 51.34H240.785V50.684H251.65V51.34ZM278.581 33.3H279.237L290.84 62H290.184L288.503 57.818H283.091L284.772 62H284.116L282.435 57.818H269.274L267.593 62H266.937L268.618 57.818H263.206L261.525 62H260.869L272.513 33.3H273.169L275.875 40.024L278.581 33.3ZM271.857 51.586H279.893L275.875 41.664L271.857 51.586ZM272.841 34.12L265.789 51.586H271.201L275.547 40.844L272.841 34.12ZM276.203 40.844L280.549 51.586H285.961L278.909 34.12L276.203 40.844ZM269.561 57.162H282.148L280.139 52.242H271.57L269.561 57.162ZM280.795 52.242L282.804 57.162H288.216L286.248 52.242H280.795ZM268.905 57.162L270.914 52.242H265.502L263.493 57.162H268.905ZM303.837 33.956H297.974V33.3H315.932V33.956H310.069V38.876H315.932V39.532H310.069V62H309.413V39.532H304.493V62H303.837V39.532H297.974V38.876H303.837V33.956ZM309.413 33.956H304.493V38.876H309.413V33.956ZM318.425 62V31.25H319.081V46.461C319.983 44.124 321.746 42.197 324.001 41.09V31.25H324.657V40.762C325.805 40.311 327.035 40.065 328.347 40.065C333.8 40.065 338.269 44.534 338.269 49.987V62H337.613V49.987C337.613 44.903 333.431 40.721 328.347 40.721C327.035 40.721 325.805 41.008 324.657 41.5V47.691C325.436 46.461 326.789 45.641 328.347 45.641C330.725 45.641 332.693 47.609 332.693 49.987V62H332.037V49.987C332.037 47.978 330.356 46.297 328.347 46.297C326.338 46.297 324.657 47.978 324.657 49.987V62H324.001V41.828C321.09 43.386 319.081 46.461 319.081 49.987V62H318.425ZM340.899 51.135C340.899 44.862 345.983 39.778 352.256 39.778C357.258 39.778 361.481 42.976 362.998 47.486L349.673 55.563C350.452 56.014 351.313 56.26 352.256 56.26C354.306 56.26 356.069 55.03 356.889 53.308L357.504 53.595C356.602 55.563 354.593 56.916 352.256 56.916C351.067 56.916 349.96 56.547 349.058 55.932L344.63 58.638C346.557 60.606 349.263 61.836 352.256 61.836C356.52 61.836 360.251 59.294 361.973 55.645L362.547 55.932C360.743 59.827 356.807 62.492 352.256 62.492C345.983 62.492 340.899 57.408 340.899 51.135ZM341.555 51.135C341.555 52.324 341.76 53.431 342.088 54.497L346.516 51.791C346.475 51.586 346.475 51.34 346.475 51.135C346.475 47.937 349.058 45.354 352.256 45.354C353.445 45.354 354.593 45.723 355.495 46.338L359.882 43.673C357.955 41.664 355.249 40.434 352.256 40.434C346.352 40.434 341.555 45.231 341.555 51.135ZM342.334 55.112C342.785 56.219 343.4 57.244 344.179 58.146L348.484 55.522C347.582 54.743 346.926 53.677 346.639 52.488L342.334 55.112ZM347.131 51.135V51.422L354.88 46.707C354.101 46.256 353.199 46.01 352.256 46.01C349.427 46.01 347.131 48.306 347.131 51.135ZM347.213 52.16C347.459 53.349 348.156 54.415 349.099 55.153L357.299 50.151C357.053 48.962 356.397 47.896 355.454 47.117L347.213 52.16ZM356.069 46.789C356.971 47.568 357.627 48.593 357.873 49.823L362.219 47.158C361.768 46.051 361.112 45.067 360.374 44.165L356.069 46.789ZM364.991 62V40.27H365.647V45.969C366.549 43.714 368.353 41.869 370.567 40.885V40.27H371.223V40.639C372.166 40.311 373.232 40.106 374.298 40.106C376.676 40.106 378.849 41.008 380.489 42.484C382.129 41.008 384.302 40.106 386.68 40.106C391.805 40.106 395.987 44.288 395.987 49.413V62H395.331V49.413C395.331 44.657 391.436 40.762 386.68 40.762C384.507 40.762 382.498 41.582 380.981 42.935C382.211 44.206 383.072 45.805 383.441 47.609C384.056 46.461 385.286 45.682 386.68 45.682C388.73 45.682 390.411 47.363 390.411 49.413V62H389.755V49.413C389.755 47.732 388.361 46.338 386.68 46.338C384.999 46.338 383.605 47.732 383.605 49.413V62H382.949V49.413C382.949 47.076 382.006 44.944 380.489 43.386C378.972 44.944 378.029 47.076 378.029 49.413V62H377.373V49.413C377.373 47.732 375.979 46.338 374.298 46.338C372.617 46.338 371.223 47.732 371.223 49.413V62H370.567V41.623C367.656 43.017 365.647 46.01 365.647 49.413V62H364.991ZM371.223 41.336V47.322C371.879 46.338 373.027 45.682 374.298 45.682C375.692 45.682 376.922 46.461 377.537 47.609C377.906 45.805 378.767 44.206 379.997 42.935C378.48 41.582 376.471 40.762 374.298 40.762C373.232 40.762 372.166 40.967 371.223 41.336ZM398.635 51.135C398.635 44.862 403.719 39.778 409.992 39.778C414.994 39.778 419.217 42.976 420.734 47.486L407.409 55.563C408.188 56.014 409.049 56.26 409.992 56.26C412.042 56.26 413.805 55.03 414.625 53.308L415.24 53.595C414.338 55.563 412.329 56.916 409.992 56.916C408.803 56.916 407.696 56.547 406.794 55.932L402.366 58.638C404.293 60.606 406.999 61.836 409.992 61.836C414.256 61.836 417.987 59.294 419.709 55.645L420.283 55.932C418.479 59.827 414.543 62.492 409.992 62.492C403.719 62.492 398.635 57.408 398.635 51.135ZM399.291 51.135C399.291 52.324 399.496 53.431 399.824 54.497L404.252 51.791C404.211 51.586 404.211 51.34 404.211 51.135C404.211 47.937 406.794 45.354 409.992 45.354C411.181 45.354 412.329 45.723 413.231 46.338L417.618 43.673C415.691 41.664 412.985 40.434 409.992 40.434C404.088 40.434 399.291 45.231 399.291 51.135ZM400.07 55.112C400.521 56.219 401.136 57.244 401.915 58.146L406.22 55.522C405.318 54.743 404.662 53.677 404.375 52.488L400.07 55.112ZM404.867 51.135V51.422L412.616 46.707C411.837 46.256 410.935 46.01 409.992 46.01C407.163 46.01 404.867 48.306 404.867 51.135ZM404.949 52.16C405.195 53.349 405.892 54.415 406.835 55.153L415.035 50.151C414.789 48.962 414.133 47.896 413.19 47.117L404.949 52.16ZM413.805 46.789C414.707 47.568 415.363 48.593 415.609 49.823L419.955 47.158C419.504 46.051 418.848 45.067 418.11 44.165L413.805 46.789ZM421.497 51.135C421.497 44.862 426.581 39.778 432.854 39.778C434.699 39.778 436.421 40.229 437.979 41.008V31.25H438.635V41.377C440.931 42.648 442.694 44.944 443.555 47.322V31.25H444.211V62H443.555V54.907C442.735 57.244 440.931 59.663 438.635 60.934V62H437.979V61.262C436.421 62.041 434.699 62.492 432.854 62.492C426.581 62.492 421.497 57.408 421.497 51.135ZM422.153 51.135C422.153 57.039 426.95 61.836 432.854 61.836C434.699 61.836 436.462 61.385 437.979 60.565V53.841C436.995 55.645 435.068 56.916 432.854 56.916C429.656 56.916 427.073 54.333 427.073 51.135C427.073 47.937 429.656 45.354 432.854 45.354C435.068 45.354 436.995 46.625 437.979 48.47V41.746C436.462 40.926 434.699 40.434 432.854 40.434C426.95 40.434 422.153 45.231 422.153 51.135ZM427.729 51.135C427.729 53.964 430.025 56.26 432.854 56.26C435.724 56.26 437.979 53.964 437.979 51.135C437.979 48.306 435.724 46.01 432.854 46.01C430.025 46.01 427.729 48.306 427.729 51.135ZM438.635 42.115V60.155C441.382 58.474 443.555 55.071 443.555 51.135C443.555 47.199 441.382 43.796 438.635 42.115ZM463.766 39.532V45.928H466.677C468.481 45.928 469.875 44.534 469.875 42.73C469.875 40.926 468.481 39.532 466.677 39.532H463.766ZM463.766 38.876H466.677C468.809 38.876 470.531 40.598 470.531 42.73C470.531 44.862 468.809 46.584 466.677 46.584H463.766V51.504H466.677C471.597 51.504 475.451 47.65 475.451 42.73C475.451 37.81 471.597 33.956 466.677 33.956H463.766V38.876ZM458.19 52.16V62H457.534V33.3H466.677C471.925 33.3 476.107 37.482 476.107 42.73C476.107 47.978 471.925 52.16 466.677 52.16H463.766V62H463.11V52.16H458.19ZM458.19 39.532V45.928H463.11V39.532H458.19ZM463.11 33.956H458.19V38.876H463.11V33.956ZM463.11 46.584H458.19V51.504H463.11V46.584ZM488.589 62.492C482.316 62.492 477.232 57.408 477.232 51.135C477.232 44.862 482.316 39.778 488.589 39.778C494.862 39.778 499.946 44.862 499.946 51.135C499.946 57.408 494.862 62.492 488.589 62.492ZM488.589 61.836C494.493 61.836 499.29 57.039 499.29 51.135C499.29 45.231 494.493 40.434 488.589 40.434C482.685 40.434 477.888 45.231 477.888 51.135C477.888 57.039 482.685 61.836 488.589 61.836ZM488.589 56.916C485.391 56.916 482.808 54.333 482.808 51.135C482.808 47.937 485.391 45.354 488.589 45.354C491.787 45.354 494.37 47.937 494.37 51.135C494.37 54.333 491.787 56.916 488.589 56.916ZM488.589 56.26C491.418 56.26 493.714 53.964 493.714 51.135C493.714 48.306 491.418 46.01 488.589 46.01C485.76 46.01 483.464 48.306 483.464 51.135C483.464 53.964 485.76 56.26 488.589 56.26ZM501.655 51.135C501.655 44.862 506.739 39.778 513.012 39.778C518.014 39.778 522.237 42.976 523.754 47.486L510.429 55.563C511.208 56.014 512.069 56.26 513.012 56.26C515.062 56.26 516.825 55.03 517.645 53.308L518.26 53.595C517.358 55.563 515.349 56.916 513.012 56.916C511.823 56.916 510.716 56.547 509.814 55.932L505.386 58.638C507.313 60.606 510.019 61.836 513.012 61.836C517.276 61.836 521.007 59.294 522.729 55.645L523.303 55.932C521.499 59.827 517.563 62.492 513.012 62.492C506.739 62.492 501.655 57.408 501.655 51.135ZM502.311 51.135C502.311 52.324 502.516 53.431 502.844 54.497L507.272 51.791C507.231 51.586 507.231 51.34 507.231 51.135C507.231 47.937 509.814 45.354 513.012 45.354C514.201 45.354 515.349 45.723 516.251 46.338L520.638 43.673C518.711 41.664 516.005 40.434 513.012 40.434C507.108 40.434 502.311 45.231 502.311 51.135ZM503.09 55.112C503.541 56.219 504.156 57.244 504.935 58.146L509.24 55.522C508.338 54.743 507.682 53.677 507.395 52.488L503.09 55.112ZM507.887 51.135V51.422L515.636 46.707C514.857 46.256 513.955 46.01 513.012 46.01C510.183 46.01 507.887 48.306 507.887 51.135ZM507.969 52.16C508.215 53.349 508.912 54.415 509.855 55.153L518.055 50.151C517.809 48.962 517.153 47.896 516.21 47.117L507.969 52.16ZM516.825 46.789C517.727 47.568 518.383 48.593 518.629 49.823L522.975 47.158C522.524 46.051 521.868 45.067 521.13 44.165L516.825 46.789ZM525.748 62V40.27H526.404V45.969C527.306 43.714 529.11 41.869 531.324 40.885V40.27H531.98V40.639C532.923 40.311 533.989 40.106 535.055 40.106C537.433 40.106 539.606 41.008 541.246 42.484C542.886 41.008 545.059 40.106 547.437 40.106C552.562 40.106 556.744 44.288 556.744 49.413V62H556.088V49.413C556.088 44.657 552.193 40.762 547.437 40.762C545.264 40.762 543.255 41.582 541.738 42.935C542.968 44.206 543.829 45.805 544.198 47.609C544.813 46.461 546.043 45.682 547.437 45.682C549.487 45.682 551.168 47.363 551.168 49.413V62H550.512V49.413C550.512 47.732 549.118 46.338 547.437 46.338C545.756 46.338 544.362 47.732 544.362 49.413V62H543.706V49.413C543.706 47.076 542.763 44.944 541.246 43.386C539.729 44.944 538.786 47.076 538.786 49.413V62H538.13V49.413C538.13 47.732 536.736 46.338 535.055 46.338C533.374 46.338 531.98 47.732 531.98 49.413V62H531.324V41.623C528.413 43.017 526.404 46.01 526.404 49.413V62H525.748ZM531.98 41.336V47.322C532.636 46.338 533.784 45.682 535.055 45.682C536.449 45.682 537.679 46.461 538.294 47.609C538.663 45.805 539.524 44.206 540.754 42.935C539.237 41.582 537.228 40.762 535.055 40.762C533.989 40.762 532.923 40.967 531.98 41.336ZM583.744 47.65C583.744 43.263 580.464 39.696 575.995 39.532V55.768C580.464 55.604 583.744 52.037 583.744 47.65ZM575.995 56.424V61.344C583.457 61.18 589.32 55.153 589.32 47.65C589.32 40.188 583.457 34.12 575.995 33.956V38.876C580.874 39.04 584.4 42.935 584.4 47.65C584.4 52.365 580.874 56.26 575.995 56.424ZM569.763 62V33.3H575.667C583.621 33.3 589.976 39.737 589.976 47.65C589.976 55.563 583.621 62 575.667 62H569.763ZM575.339 55.768V39.532H570.419V55.768H575.339ZM575.339 56.424H570.419V61.344H575.339V56.424ZM575.339 38.876V33.956H570.419V38.876H575.339ZM592.853 62V40.27H593.509V62H592.853ZM599.085 40.27V62H598.429V40.27H599.085ZM598.429 38.138V31.25H599.085V38.138H598.429ZM593.509 31.25V38.138H592.853V31.25H593.509ZM602.279 46.953C602.279 42.976 605.477 39.778 609.454 39.778C612.406 39.778 614.948 41.582 616.055 44.124L615.44 44.411C614.456 42.074 612.119 40.434 609.454 40.434C605.846 40.434 602.935 43.345 602.935 46.953C602.935 50.028 605.026 52.57 607.896 53.308L609.7 53.759C610.397 53.923 610.889 54.579 610.889 55.317C610.889 56.219 610.192 56.916 609.29 56.916C608.593 56.916 608.019 56.506 607.773 55.85L608.388 55.604C608.511 55.973 608.839 56.26 609.29 56.26C609.823 56.26 610.233 55.85 610.233 55.317C610.233 54.866 609.987 54.497 609.536 54.374L607.691 53.923C604.575 53.144 602.279 50.315 602.279 46.953ZM602.689 58.187L603.304 57.9C604.288 60.237 606.584 61.836 609.29 61.836C612.898 61.836 615.809 58.925 615.809 55.317C615.809 52.242 613.718 49.7 610.848 48.962L609.044 48.511C608.306 48.306 607.855 47.691 607.855 46.953C607.855 46.051 608.552 45.354 609.454 45.354C610.151 45.354 610.725 45.805 610.93 46.42L610.356 46.666C610.233 46.297 609.864 46.01 609.454 46.01C608.921 46.01 608.511 46.42 608.511 46.953C608.511 47.404 608.757 47.773 609.208 47.896L611.053 48.347C614.21 49.126 616.465 51.955 616.465 55.317C616.465 59.294 613.267 62.492 609.29 62.492C606.338 62.492 603.796 60.729 602.689 58.187ZM625.255 60.155V42.115C622.508 43.796 620.335 47.199 620.335 51.135C620.335 55.071 622.508 58.474 625.255 60.155ZM631.036 62.492C629.191 62.492 627.469 62.041 625.911 61.262V71.02H625.255V60.893C622.959 59.622 621.155 57.285 620.335 54.948V71.02H619.679V40.27H620.335V47.363C621.155 44.985 622.959 42.607 625.255 41.336V40.27H625.911V41.008C627.469 40.229 629.191 39.778 631.036 39.778C637.309 39.778 642.393 44.862 642.393 51.135C642.393 57.408 637.309 62.492 631.036 62.492ZM631.036 56.916C628.822 56.916 626.895 55.645 625.911 53.8V60.524C627.428 61.344 629.191 61.836 631.036 61.836C636.94 61.836 641.737 57.039 641.737 51.135C641.737 45.231 636.94 40.434 631.036 40.434C629.191 40.434 627.428 40.885 625.911 41.705V48.429C626.895 46.625 628.822 45.354 631.036 45.354C634.234 45.354 636.817 47.937 636.817 51.135C636.817 54.333 634.234 56.916 631.036 56.916ZM631.036 46.01C628.166 46.01 625.911 48.306 625.911 51.135C625.911 53.964 628.166 56.26 631.036 56.26C633.865 56.26 636.161 53.964 636.161 51.135C636.161 48.306 633.865 46.01 631.036 46.01ZM646 31.25V62H645.344V31.25H646ZM651.576 31.25V62H650.92V31.25H651.576ZM671.663 42.115V60.155C674.41 58.474 676.583 55.071 676.583 51.135C676.583 47.199 674.41 43.796 671.663 42.115ZM665.882 39.778C667.727 39.778 669.449 40.229 671.007 41.008V40.27H671.663V41.377C673.959 42.648 675.722 44.944 676.583 47.322V40.27H677.239V62H676.583V54.907C675.763 57.244 673.959 59.663 671.663 60.934V62H671.007V61.262C669.449 62.041 667.727 62.492 665.882 62.492C659.609 62.492 654.525 57.408 654.525 51.135C654.525 44.862 659.609 39.778 665.882 39.778ZM665.882 61.836C667.727 61.836 669.49 61.385 671.007 60.565V53.841C670.023 55.645 668.096 56.916 665.882 56.916C662.684 56.916 660.101 54.333 660.101 51.135C660.101 47.937 662.684 45.354 665.882 45.354C668.096 45.354 670.023 46.625 671.007 48.47V41.746C669.49 40.926 667.727 40.434 665.882 40.434C659.978 40.434 655.181 45.231 655.181 51.135C655.181 57.039 659.978 61.836 665.882 61.836ZM665.882 56.26C668.752 56.26 671.007 53.964 671.007 51.135C671.007 48.306 668.752 46.01 665.882 46.01C663.053 46.01 660.757 48.306 660.757 51.135C660.757 53.964 663.053 56.26 665.882 56.26ZM703.437 40.27L689.251 71.02H688.554L691.096 65.526L688.226 59.376L682.855 71.02H682.158L687.898 58.597L679.329 40.27H680.026L688.226 57.859L691.055 51.75L685.725 40.27H686.422L691.424 50.971L696.344 40.27H697.041L691.752 51.709L694.622 57.859L702.74 40.27H703.437ZM691.465 64.747L694.294 58.638L691.424 52.488L688.595 58.638L691.465 64.747ZM728.238 41.295L723.646 53.882L726.229 61.016L730.821 48.388L728.238 41.295ZM731.559 48.388L736.151 61.016L738.734 53.882L734.142 41.295L731.559 48.388ZM731.19 47.363L733.773 40.27H734.511L739.103 52.898L743.695 40.27H744.433L739.472 53.882L742.055 61.016L749.599 40.27H750.337L742.424 62H741.686L739.103 54.907L736.52 62H735.782L731.19 49.413L726.598 62H725.86L723.277 54.907L720.694 62H719.956L712.043 40.27H712.781L720.325 61.016L722.908 53.923L717.947 40.27H718.685L723.277 52.898L727.869 40.27H728.607L731.19 47.363ZM752.569 62V40.27H753.225V62H752.569ZM758.801 40.27V62H758.145V40.27H758.801ZM758.145 38.138V31.25H758.801V38.138H758.145ZM753.225 31.25V38.138H752.569V31.25H753.225ZM765.029 40.926H761.79V40.27H765.029V33.3H765.685V40.27H770.605V33.3H771.261V40.27H774.5V40.926H771.261V45.846H774.5V46.502H771.261V62H770.605V46.502H765.685V62H765.029V46.502H761.79V45.846H765.029V40.926ZM770.605 40.926H765.685V45.846H770.605V40.926ZM777.473 62V31.25H778.129V46.461C779.031 44.124 780.794 42.197 783.049 41.09V31.25H783.705V40.762C784.853 40.311 786.083 40.065 787.395 40.065C792.848 40.065 797.317 44.534 797.317 49.987V62H796.661V49.987C796.661 44.903 792.479 40.721 787.395 40.721C786.083 40.721 784.853 41.008 783.705 41.5V47.691C784.484 46.461 785.837 45.641 787.395 45.641C789.773 45.641 791.741 47.609 791.741 49.987V62H791.085V49.987C791.085 47.978 789.404 46.297 787.395 46.297C785.386 46.297 783.705 47.978 783.705 49.987V62H783.049V41.828C780.138 43.386 778.129 46.461 778.129 49.987V62H777.473ZM829.301 40.27V62H828.645V55.809C827.743 58.146 825.98 60.073 823.725 61.18V62H823.069V61.508C821.921 61.959 820.691 62.205 819.379 62.205C813.926 62.205 809.457 57.736 809.457 52.283V40.27H810.113V52.283C810.113 57.367 814.295 61.549 819.379 61.549C820.691 61.549 821.921 61.262 823.069 60.77V54.579C822.29 55.809 820.937 56.629 819.379 56.629C817.001 56.629 815.033 54.661 815.033 52.283V40.27H815.689V52.283C815.689 54.292 817.37 55.973 819.379 55.973C821.388 55.973 823.069 54.292 823.069 52.283V40.27H823.725V60.442C826.636 58.884 828.645 55.809 828.645 52.283V40.27H829.301ZM832.504 46.953C832.504 42.976 835.702 39.778 839.679 39.778C842.631 39.778 845.173 41.582 846.28 44.124L845.665 44.411C844.681 42.074 842.344 40.434 839.679 40.434C836.071 40.434 833.16 43.345 833.16 46.953C833.16 50.028 835.251 52.57 838.121 53.308L839.925 53.759C840.622 53.923 841.114 54.579 841.114 55.317C841.114 56.219 840.417 56.916 839.515 56.916C838.818 56.916 838.244 56.506 837.998 55.85L838.613 55.604C838.736 55.973 839.064 56.26 839.515 56.26C840.048 56.26 840.458 55.85 840.458 55.317C840.458 54.866 840.212 54.497 839.761 54.374L837.916 53.923C834.8 53.144 832.504 50.315 832.504 46.953ZM832.914 58.187L833.529 57.9C834.513 60.237 836.809 61.836 839.515 61.836C843.123 61.836 846.034 58.925 846.034 55.317C846.034 52.242 843.943 49.7 841.073 48.962L839.269 48.511C838.531 48.306 838.08 47.691 838.08 46.953C838.08 46.051 838.777 45.354 839.679 45.354C840.376 45.354 840.95 45.805 841.155 46.42L840.581 46.666C840.458 46.297 840.089 46.01 839.679 46.01C839.146 46.01 838.736 46.42 838.736 46.953C838.736 47.404 838.982 47.773 839.433 47.896L841.278 48.347C844.435 49.126 846.69 51.955 846.69 55.317C846.69 59.294 843.492 62.492 839.515 62.492C836.563 62.492 834.021 60.729 832.914 58.187ZM848.674 51.135C848.674 44.862 853.758 39.778 860.031 39.778C865.033 39.778 869.256 42.976 870.773 47.486L857.448 55.563C858.227 56.014 859.088 56.26 860.031 56.26C862.081 56.26 863.844 55.03 864.664 53.308L865.279 53.595C864.377 55.563 862.368 56.916 860.031 56.916C858.842 56.916 857.735 56.547 856.833 55.932L852.405 58.638C854.332 60.606 857.038 61.836 860.031 61.836C864.295 61.836 868.026 59.294 869.748 55.645L870.322 55.932C868.518 59.827 864.582 62.492 860.031 62.492C853.758 62.492 848.674 57.408 848.674 51.135ZM849.33 51.135C849.33 52.324 849.535 53.431 849.863 54.497L854.291 51.791C854.25 51.586 854.25 51.34 854.25 51.135C854.25 47.937 856.833 45.354 860.031 45.354C861.22 45.354 862.368 45.723 863.27 46.338L867.657 43.673C865.73 41.664 863.024 40.434 860.031 40.434C854.127 40.434 849.33 45.231 849.33 51.135ZM850.109 55.112C850.56 56.219 851.175 57.244 851.954 58.146L856.259 55.522C855.357 54.743 854.701 53.677 854.414 52.488L850.109 55.112ZM854.906 51.135V51.422L862.655 46.707C861.876 46.256 860.974 46.01 860.031 46.01C857.202 46.01 854.906 48.306 854.906 51.135ZM854.988 52.16C855.234 53.349 855.931 54.415 856.874 55.153L865.074 50.151C864.828 48.962 864.172 47.896 863.229 47.117L854.988 52.16ZM863.844 46.789C864.746 47.568 865.402 48.593 865.648 49.823L869.994 47.158C869.543 46.051 868.887 45.067 868.149 44.165L863.844 46.789ZM879.531 61.344H891.052V62H873.299V33.3H873.955V55.768H878.875V33.3H879.531V55.768H891.052V56.424H879.531V61.344ZM873.955 61.344H878.875V56.424H873.955V61.344ZM909.174 42.115V60.155C911.921 58.474 914.094 55.071 914.094 51.135C914.094 47.199 911.921 43.796 909.174 42.115ZM903.393 39.778C905.238 39.778 906.96 40.229 908.518 41.008V40.27H909.174V41.377C911.47 42.648 913.233 44.944 914.094 47.322V40.27H914.75V62H914.094V54.907C913.274 57.244 911.47 59.663 909.174 60.934V62H908.518V61.262C906.96 62.041 905.238 62.492 903.393 62.492C897.12 62.492 892.036 57.408 892.036 51.135C892.036 44.862 897.12 39.778 903.393 39.778ZM903.393 61.836C905.238 61.836 907.001 61.385 908.518 60.565V53.841C907.534 55.645 905.607 56.916 903.393 56.916C900.195 56.916 897.612 54.333 897.612 51.135C897.612 47.937 900.195 45.354 903.393 45.354C905.607 45.354 907.534 46.625 908.518 48.47V41.746C907.001 40.926 905.238 40.434 903.393 40.434C897.489 40.434 892.692 45.231 892.692 51.135C892.692 57.039 897.489 61.836 903.393 61.836ZM903.393 56.26C906.263 56.26 908.518 53.964 908.518 51.135C908.518 48.306 906.263 46.01 903.393 46.01C900.564 46.01 898.268 48.306 898.268 51.135C898.268 53.964 900.564 56.26 903.393 56.26ZM940.948 40.27L926.762 71.02H926.065L928.607 65.526L925.737 59.376L920.366 71.02H919.669L925.409 58.597L916.84 40.27H917.537L925.737 57.859L928.566 51.75L923.236 40.27H923.933L928.935 50.971L933.855 40.27H934.552L929.263 51.709L932.133 57.859L940.251 40.27H940.948ZM928.976 64.747L931.805 58.638L928.935 52.488L926.106 58.638L928.976 64.747ZM951.64 62.492C945.367 62.492 940.283 57.408 940.283 51.135C940.283 44.862 945.367 39.778 951.64 39.778C957.913 39.778 962.997 44.862 962.997 51.135C962.997 57.408 957.913 62.492 951.64 62.492ZM951.64 61.836C957.544 61.836 962.341 57.039 962.341 51.135C962.341 45.231 957.544 40.434 951.64 40.434C945.736 40.434 940.939 45.231 940.939 51.135C940.939 57.039 945.736 61.836 951.64 61.836ZM951.64 56.916C948.442 56.916 945.859 54.333 945.859 51.135C945.859 47.937 948.442 45.354 951.64 45.354C954.838 45.354 957.421 47.937 957.421 51.135C957.421 54.333 954.838 56.916 951.64 56.916ZM951.64 56.26C954.469 56.26 956.765 53.964 956.765 51.135C956.765 48.306 954.469 46.01 951.64 46.01C948.811 46.01 946.515 48.306 946.515 51.135C946.515 53.964 948.811 56.26 951.64 56.26ZM985.453 40.27V62H984.797V55.809C983.895 58.146 982.132 60.073 979.877 61.18V62H979.221V61.508C978.073 61.959 976.843 62.205 975.531 62.205C970.078 62.205 965.609 57.736 965.609 52.283V40.27H966.265V52.283C966.265 57.367 970.447 61.549 975.531 61.549C976.843 61.549 978.073 61.262 979.221 60.77V54.579C978.442 55.809 977.089 56.629 975.531 56.629C973.153 56.629 971.185 54.661 971.185 52.283V40.27H971.841V52.283C971.841 54.292 973.522 55.973 975.531 55.973C977.54 55.973 979.221 54.292 979.221 52.283V40.27H979.877V60.442C982.788 58.884 984.797 55.809 984.797 52.283V40.27H985.453ZM991.69 40.926H988.451V40.27H991.69V33.3H992.346V40.27H997.266V33.3H997.922V40.27H1001.16V40.926H997.922V45.846H1001.16V46.502H997.922V62H997.266V46.502H992.346V62H991.69V46.502H988.451V45.846H991.69V40.926ZM997.266 40.926H992.346V45.846H997.266V40.926ZM1010.5 61.344H1021.36V62H1004.27V33.3H1021.36V33.956H1010.5V38.876H1021.36V39.532H1010.5V44.534H1018.41V45.19H1010.5V50.11H1018.41V50.766H1010.5V55.768H1021.36V56.424H1010.5V61.344ZM1004.92 39.532V44.534H1009.84V39.532H1004.92ZM1009.84 56.424H1004.92V61.344H1009.84V56.424ZM1009.84 33.956H1004.92V38.876H1009.84V33.956ZM1009.84 45.19H1004.92V50.11H1009.84V45.19ZM1004.92 50.766V55.768H1009.84V50.766H1004.92ZM1027.14 46.502V62H1026.48V46.502H1023.25V45.846H1026.48V40.926H1023.25V40.27H1026.48V38.466C1026.48 34.448 1029.72 31.25 1033.78 31.25H1036.94V31.906H1033.78C1030.05 31.906 1027.14 34.776 1027.14 38.466V40.27H1032.06V38.466C1032.06 37.564 1032.84 36.826 1033.78 36.826H1036.94V37.482H1033.78C1033.17 37.482 1032.72 37.933 1032.72 38.466V40.27H1036.94V40.926H1032.72V45.846H1036.94V46.502H1032.72V62H1032.06V46.502H1027.14ZM1027.14 40.926V45.846H1032.06V40.926H1027.14ZM1042.23 46.502V62H1041.58V46.502H1038.34V45.846H1041.58V40.926H1038.34V40.27H1041.58V38.466C1041.58 34.448 1044.82 31.25 1048.88 31.25H1052.03V31.906H1048.88C1045.15 31.906 1042.23 34.776 1042.23 38.466V40.27H1047.15V38.466C1047.15 37.564 1047.93 36.826 1048.88 36.826H1052.03V37.482H1048.88C1048.26 37.482 1047.81 37.933 1047.81 38.466V40.27H1052.03V40.926H1047.81V45.846H1052.03V46.502H1047.81V62H1047.15V46.502H1042.23ZM1042.23 40.926V45.846H1047.15V40.926H1042.23ZM1053.03 51.135C1053.03 44.862 1058.12 39.778 1064.39 39.778C1069.39 39.778 1073.62 42.976 1075.13 47.486L1061.81 55.563C1062.59 56.014 1063.45 56.26 1064.39 56.26C1066.44 56.26 1068.2 55.03 1069.02 53.308L1069.64 53.595C1068.74 55.563 1066.73 56.916 1064.39 56.916C1063.2 56.916 1062.09 56.547 1061.19 55.932L1056.76 58.638C1058.69 60.606 1061.4 61.836 1064.39 61.836C1068.65 61.836 1072.39 59.294 1074.11 55.645L1074.68 55.932C1072.88 59.827 1068.94 62.492 1064.39 62.492C1058.12 62.492 1053.03 57.408 1053.03 51.135ZM1053.69 51.135C1053.69 52.324 1053.89 53.431 1054.22 54.497L1058.65 51.791C1058.61 51.586 1058.61 51.34 1058.61 51.135C1058.61 47.937 1061.19 45.354 1064.39 45.354C1065.58 45.354 1066.73 45.723 1067.63 46.338L1072.02 43.673C1070.09 41.664 1067.38 40.434 1064.39 40.434C1058.49 40.434 1053.69 45.231 1053.69 51.135ZM1054.47 55.112C1054.92 56.219 1055.53 57.244 1056.31 58.146L1060.62 55.522C1059.72 54.743 1059.06 53.677 1058.77 52.488L1054.47 55.112ZM1059.27 51.135V51.422L1067.01 46.707C1066.24 46.256 1065.33 46.01 1064.39 46.01C1061.56 46.01 1059.27 48.306 1059.27 51.135ZM1059.35 52.16C1059.59 53.349 1060.29 54.415 1061.23 55.153L1069.43 50.151C1069.19 48.962 1068.53 47.896 1067.59 47.117L1059.35 52.16ZM1068.2 46.789C1069.11 47.568 1069.76 48.593 1070.01 49.823L1074.35 47.158C1073.9 46.051 1073.25 45.067 1072.51 44.165L1068.2 46.789ZM1087.99 45.846V46.502H1086.8C1084.3 46.502 1082.17 48.634 1082.17 51.135C1082.17 53.636 1084.3 55.768 1086.8 55.768H1087.99V56.424H1086.8C1083.93 56.424 1081.51 54.005 1081.51 51.135C1081.51 48.265 1083.93 45.846 1086.8 45.846H1087.99ZM1087.99 40.926H1086.8C1081.18 40.926 1076.59 45.518 1076.59 51.135C1076.59 56.752 1081.18 61.344 1086.8 61.344H1087.99V62H1086.8C1080.82 62 1075.94 57.121 1075.94 51.135C1075.94 45.149 1080.82 40.27 1086.8 40.27H1087.99V40.926ZM1093.51 40.926H1090.27V40.27H1093.51V33.3H1094.17V40.27H1099.09V33.3H1099.74V40.27H1102.98V40.926H1099.74V45.846H1102.98V46.502H1099.74V62H1099.09V46.502H1094.17V62H1093.51V46.502H1090.27V45.846H1093.51V40.926ZM1099.09 40.926H1094.17V45.846H1099.09V40.926ZM1121.33 39.532V45.928H1124.24C1126.04 45.928 1127.44 44.534 1127.44 42.73C1127.44 40.926 1126.04 39.532 1124.24 39.532H1121.33ZM1121.33 38.876H1124.24C1126.37 38.876 1128.09 40.598 1128.09 42.73C1128.09 44.862 1126.37 46.584 1124.24 46.584H1121.33V51.504H1124.24C1129.16 51.504 1133.01 47.65 1133.01 42.73C1133.01 37.81 1129.16 33.956 1124.24 33.956H1121.33V38.876ZM1115.75 52.16V62H1115.1V33.3H1124.24C1129.49 33.3 1133.67 37.482 1133.67 42.73C1133.67 47.978 1129.49 52.16 1124.24 52.16H1121.33V62H1120.67V52.16H1115.75ZM1115.75 39.532V45.928H1120.67V39.532H1115.75ZM1120.67 33.956H1115.75V38.876H1120.67V33.956ZM1120.67 46.584H1115.75V51.504H1120.67V46.584ZM1146.15 62.492C1139.88 62.492 1134.79 57.408 1134.79 51.135C1134.79 44.862 1139.88 39.778 1146.15 39.778C1152.42 39.778 1157.51 44.862 1157.51 51.135C1157.51 57.408 1152.42 62.492 1146.15 62.492ZM1146.15 61.836C1152.05 61.836 1156.85 57.039 1156.85 51.135C1156.85 45.231 1152.05 40.434 1146.15 40.434C1140.25 40.434 1135.45 45.231 1135.45 51.135C1135.45 57.039 1140.25 61.836 1146.15 61.836ZM1146.15 56.916C1142.95 56.916 1140.37 54.333 1140.37 51.135C1140.37 47.937 1142.95 45.354 1146.15 45.354C1149.35 45.354 1151.93 47.937 1151.93 51.135C1151.93 54.333 1149.35 56.916 1146.15 56.916ZM1146.15 56.26C1148.98 56.26 1151.28 53.964 1151.28 51.135C1151.28 48.306 1148.98 46.01 1146.15 46.01C1143.32 46.01 1141.03 48.306 1141.03 51.135C1141.03 53.964 1143.32 56.26 1146.15 56.26ZM1159.22 51.135C1159.22 44.862 1164.3 39.778 1170.57 39.778C1175.58 39.778 1179.8 42.976 1181.32 47.486L1167.99 55.563C1168.77 56.014 1169.63 56.26 1170.57 56.26C1172.62 56.26 1174.39 55.03 1175.21 53.308L1175.82 53.595C1174.92 55.563 1172.91 56.916 1170.57 56.916C1169.38 56.916 1168.28 56.547 1167.38 55.932L1162.95 58.638C1164.87 60.606 1167.58 61.836 1170.57 61.836C1174.84 61.836 1178.57 59.294 1180.29 55.645L1180.86 55.932C1179.06 59.827 1175.12 62.492 1170.57 62.492C1164.3 62.492 1159.22 57.408 1159.22 51.135ZM1159.87 51.135C1159.87 52.324 1160.08 53.431 1160.41 54.497L1164.83 51.791C1164.79 51.586 1164.79 51.34 1164.79 51.135C1164.79 47.937 1167.38 45.354 1170.57 45.354C1171.76 45.354 1172.91 45.723 1173.81 46.338L1178.2 43.673C1176.27 41.664 1173.57 40.434 1170.57 40.434C1164.67 40.434 1159.87 45.231 1159.87 51.135ZM1160.65 55.112C1161.1 56.219 1161.72 57.244 1162.5 58.146L1166.8 55.522C1165.9 54.743 1165.24 53.677 1164.96 52.488L1160.65 55.112ZM1165.45 51.135V51.422L1173.2 46.707C1172.42 46.256 1171.52 46.01 1170.57 46.01C1167.74 46.01 1165.45 48.306 1165.45 51.135ZM1165.53 52.16C1165.78 53.349 1166.47 54.415 1167.42 55.153L1175.62 50.151C1175.37 48.962 1174.71 47.896 1173.77 47.117L1165.53 52.16ZM1174.39 46.789C1175.29 47.568 1175.94 48.593 1176.19 49.823L1180.54 47.158C1180.09 46.051 1179.43 45.067 1178.69 44.165L1174.39 46.789ZM1185.36 40.926H1182.12V40.27H1185.36V33.3H1186.02V40.27H1190.94V33.3H1191.59V40.27H1194.83V40.926H1191.59V45.846H1194.83V46.502H1191.59V62H1190.94V46.502H1186.02V62H1185.36V46.502H1182.12V45.846H1185.36V40.926ZM1190.94 40.926H1186.02V45.846H1190.94V40.926ZM1203.38 62V42.689C1201.17 44.042 1198.46 46.83 1198.46 51.709V62H1197.8V40.27H1198.46V47.732C1199.48 44.903 1201.08 43.304 1203.38 41.951V40.27H1204.04V41.582C1205.68 40.762 1207.44 40.352 1209.16 40.352V41.008C1207.44 41.008 1205.63 41.459 1204.04 42.32V49.044C1204.98 47.199 1206.95 45.928 1209.16 45.928V46.584C1206.29 46.584 1204.04 48.88 1204.04 51.709V62H1203.38ZM1233.63 40.27L1219.45 71.02H1218.75L1221.29 65.526L1218.42 59.376L1213.05 71.02H1212.35L1218.09 58.597L1209.53 40.27H1210.22L1218.42 57.859L1221.25 51.75L1215.92 40.27H1216.62L1221.62 50.971L1226.54 40.27H1227.24L1221.95 51.709L1224.82 57.859L1232.94 40.27H1233.63ZM1221.66 64.747L1224.49 58.638L1221.62 52.488L1218.79 58.638L1221.66 64.747ZM1244.21 62V40.27H1244.86V62H1244.21ZM1250.44 40.27V62H1249.78V40.27H1250.44ZM1249.78 38.138V31.25H1250.44V38.138H1249.78ZM1244.86 31.25V38.138H1244.21V31.25H1244.86ZM1254.62 62V40.27H1255.27V46.461C1256.18 44.124 1257.94 42.197 1260.19 41.09V40.27H1260.85V40.762C1262 40.311 1263.23 40.065 1264.54 40.065C1269.99 40.065 1274.46 44.534 1274.46 49.987V62H1273.81V49.987C1273.81 44.903 1269.62 40.721 1264.54 40.721C1263.23 40.721 1262 41.008 1260.85 41.5V47.691C1261.63 46.461 1262.98 45.641 1264.54 45.641C1266.92 45.641 1268.89 47.609 1268.89 49.987V62H1268.23V49.987C1268.23 47.978 1266.55 46.297 1264.54 46.297C1262.53 46.297 1260.85 47.978 1260.85 49.987V62H1260.19V41.828C1257.28 43.386 1255.27 46.461 1255.27 49.987V62H1254.62ZM1305.46 55.522L1302.84 62H1302.18L1295.17 44.698L1292.14 62H1291.48L1294.72 43.55L1291.07 34.448L1286.23 62H1285.58L1290.62 33.3H1291.28L1294.93 42.402L1296.52 33.3H1297.18L1305.46 53.882L1313.74 33.3H1314.4L1316 42.361L1319.65 33.3H1320.3L1325.35 62H1324.69L1319.85 34.448L1316.2 43.509L1319.44 62H1318.79L1315.75 44.616L1308.74 62H1308.09L1305.46 55.522ZM1308.41 61.18L1315.55 43.468L1313.95 34.448L1305.79 54.702L1308.41 61.18ZM1305.13 54.702L1296.98 34.448L1295.38 43.55L1302.51 61.18L1305.13 54.702ZM1337.94 62.492C1331.66 62.492 1326.58 57.408 1326.58 51.135C1326.58 44.862 1331.66 39.778 1337.94 39.778C1344.21 39.778 1349.29 44.862 1349.29 51.135C1349.29 57.408 1344.21 62.492 1337.94 62.492ZM1337.94 61.836C1343.84 61.836 1348.64 57.039 1348.64 51.135C1348.64 45.231 1343.84 40.434 1337.94 40.434C1332.03 40.434 1327.24 45.231 1327.24 51.135C1327.24 57.039 1332.03 61.836 1337.94 61.836ZM1337.94 56.916C1334.74 56.916 1332.16 54.333 1332.16 51.135C1332.16 47.937 1334.74 45.354 1337.94 45.354C1341.14 45.354 1343.72 47.937 1343.72 51.135C1343.72 54.333 1341.14 56.916 1337.94 56.916ZM1337.94 56.26C1340.77 56.26 1343.06 53.964 1343.06 51.135C1343.06 48.306 1340.77 46.01 1337.94 46.01C1335.11 46.01 1332.81 48.306 1332.81 51.135C1332.81 53.964 1335.11 56.26 1337.94 56.26ZM1353.88 40.926H1350.64V40.27H1353.88V33.3H1354.54V40.27H1359.46V33.3H1360.12V40.27H1363.35V40.926H1360.12V45.846H1363.35V46.502H1360.12V62H1359.46V46.502H1354.54V62H1353.88V46.502H1350.64V45.846H1353.88V40.926ZM1359.46 40.926H1354.54V45.846H1359.46V40.926ZM1366.33 62V40.27H1366.98V62H1366.33ZM1372.56 40.27V62H1371.9V40.27H1372.56ZM1371.9 38.138V31.25H1372.56V38.138H1371.9ZM1366.98 31.25V38.138H1366.33V31.25H1366.98ZM1386.86 62.492C1380.59 62.492 1375.51 57.408 1375.51 51.135C1375.51 44.862 1380.59 39.778 1386.86 39.778C1393.14 39.778 1398.22 44.862 1398.22 51.135C1398.22 57.408 1393.14 62.492 1386.86 62.492ZM1386.86 61.836C1392.77 61.836 1397.57 57.039 1397.57 51.135C1397.57 45.231 1392.77 40.434 1386.86 40.434C1380.96 40.434 1376.16 45.231 1376.16 51.135C1376.16 57.039 1380.96 61.836 1386.86 61.836ZM1386.86 56.916C1383.67 56.916 1381.08 54.333 1381.08 51.135C1381.08 47.937 1383.67 45.354 1386.86 45.354C1390.06 45.354 1392.65 47.937 1392.65 51.135C1392.65 54.333 1390.06 56.916 1386.86 56.916ZM1386.86 56.26C1389.69 56.26 1391.99 53.964 1391.99 51.135C1391.99 48.306 1389.69 46.01 1386.86 46.01C1384.04 46.01 1381.74 48.306 1381.74 51.135C1381.74 53.964 1384.04 56.26 1386.86 56.26ZM1401.16 62V40.27H1401.82V46.461C1402.72 44.124 1404.48 42.197 1406.74 41.09V40.27H1407.39V40.762C1408.54 40.311 1409.77 40.065 1411.08 40.065C1416.54 40.065 1421.01 44.534 1421.01 49.987V62H1420.35V49.987C1420.35 44.903 1416.17 40.721 1411.08 40.721C1409.77 40.721 1408.54 41.008 1407.39 41.5V47.691C1408.17 46.461 1409.53 45.641 1411.08 45.641C1413.46 45.641 1415.43 47.609 1415.43 49.987V62H1414.77V49.987C1414.77 47.978 1413.09 46.297 1411.08 46.297C1409.07 46.297 1407.39 47.978 1407.39 49.987V62H1406.74V41.828C1403.83 43.386 1401.82 46.461 1401.82 49.987V62H1401.16ZM1444.13 45.764H1433.27V45.108H1444.13V45.764ZM1444.13 51.34H1433.27V50.684H1444.13V51.34ZM1471.06 33.3H1471.72L1483.32 62H1482.67L1480.99 57.818H1475.57L1477.26 62H1476.6L1474.92 57.818H1461.76L1460.08 62H1459.42L1461.1 57.818H1455.69L1454.01 62H1453.35L1465 33.3H1465.65L1468.36 40.024L1471.06 33.3ZM1464.34 51.586H1472.38L1468.36 41.664L1464.34 51.586ZM1465.32 34.12L1458.27 51.586H1463.68L1468.03 40.844L1465.32 34.12ZM1468.69 40.844L1473.03 51.586H1478.44L1471.39 34.12L1468.69 40.844ZM1462.04 57.162H1474.63L1472.62 52.242H1464.05L1462.04 57.162ZM1473.28 52.242L1475.29 57.162H1480.7L1478.73 52.242H1473.28ZM1461.39 57.162L1463.4 52.242H1457.99L1455.98 57.162H1461.39ZM1496.32 33.956H1490.46V33.3H1508.42V33.956H1502.55V38.876H1508.42V39.532H1502.55V62H1501.9V39.532H1496.98V62H1496.32V39.532H1490.46V38.876H1496.32V33.956ZM1501.9 33.956H1496.98V38.876H1501.9V33.956ZM1510.91 62V31.25H1511.56V46.461C1512.47 44.124 1514.23 42.197 1516.48 41.09V31.25H1517.14V40.762C1518.29 40.311 1519.52 40.065 1520.83 40.065C1526.28 40.065 1530.75 44.534 1530.75 49.987V62H1530.1V49.987C1530.1 44.903 1525.91 40.721 1520.83 40.721C1519.52 40.721 1518.29 41.008 1517.14 41.5V47.691C1517.92 46.461 1519.27 45.641 1520.83 45.641C1523.21 45.641 1525.18 47.609 1525.18 49.987V62H1524.52V49.987C1524.52 47.978 1522.84 46.297 1520.83 46.297C1518.82 46.297 1517.14 47.978 1517.14 49.987V62H1516.48V41.828C1513.57 43.386 1511.56 46.461 1511.56 49.987V62H1510.91ZM1533.38 51.135C1533.38 44.862 1538.47 39.778 1544.74 39.778C1549.74 39.778 1553.96 42.976 1555.48 47.486L1542.16 55.563C1542.93 56.014 1543.8 56.26 1544.74 56.26C1546.79 56.26 1548.55 55.03 1549.37 53.308L1549.99 53.595C1549.08 55.563 1547.08 56.916 1544.74 56.916C1543.55 56.916 1542.44 56.547 1541.54 55.932L1537.11 58.638C1539.04 60.606 1541.75 61.836 1544.74 61.836C1549 61.836 1552.73 59.294 1554.46 55.645L1555.03 55.932C1553.23 59.827 1549.29 62.492 1544.74 62.492C1538.47 62.492 1533.38 57.408 1533.38 51.135ZM1534.04 51.135C1534.04 52.324 1534.24 53.431 1534.57 54.497L1539 51.791C1538.96 51.586 1538.96 51.34 1538.96 51.135C1538.96 47.937 1541.54 45.354 1544.74 45.354C1545.93 45.354 1547.08 45.723 1547.98 46.338L1552.36 43.673C1550.44 41.664 1547.73 40.434 1544.74 40.434C1538.83 40.434 1534.04 45.231 1534.04 51.135ZM1534.82 55.112C1535.27 56.219 1535.88 57.244 1536.66 58.146L1540.97 55.522C1540.06 54.743 1539.41 53.677 1539.12 52.488L1534.82 55.112ZM1539.61 51.135V51.422L1547.36 46.707C1546.58 46.256 1545.68 46.01 1544.74 46.01C1541.91 46.01 1539.61 48.306 1539.61 51.135ZM1539.7 52.16C1539.94 53.349 1540.64 54.415 1541.58 55.153L1549.78 50.151C1549.54 48.962 1548.88 47.896 1547.94 47.117L1539.7 52.16ZM1548.55 46.789C1549.45 47.568 1550.11 48.593 1550.36 49.823L1554.7 47.158C1554.25 46.051 1553.59 45.067 1552.86 44.165L1548.55 46.789ZM1557.47 62V40.27H1558.13V45.969C1559.03 43.714 1560.84 41.869 1563.05 40.885V40.27H1563.71V40.639C1564.65 40.311 1565.72 40.106 1566.78 40.106C1569.16 40.106 1571.33 41.008 1572.97 42.484C1574.61 41.008 1576.79 40.106 1579.16 40.106C1584.29 40.106 1588.47 44.288 1588.47 49.413V62H1587.81V49.413C1587.81 44.657 1583.92 40.762 1579.16 40.762C1576.99 40.762 1574.98 41.582 1573.46 42.935C1574.69 44.206 1575.56 45.805 1575.92 47.609C1576.54 46.461 1577.77 45.682 1579.16 45.682C1581.21 45.682 1582.89 47.363 1582.89 49.413V62H1582.24V49.413C1582.24 47.732 1580.84 46.338 1579.16 46.338C1577.48 46.338 1576.09 47.732 1576.09 49.413V62H1575.43V49.413C1575.43 47.076 1574.49 44.944 1572.97 43.386C1571.46 44.944 1570.51 47.076 1570.51 49.413V62H1569.86V49.413C1569.86 47.732 1568.46 46.338 1566.78 46.338C1565.1 46.338 1563.71 47.732 1563.71 49.413V62H1563.05V41.623C1560.14 43.017 1558.13 46.01 1558.13 49.413V62H1557.47ZM1563.71 41.336V47.322C1564.36 46.338 1565.51 45.682 1566.78 45.682C1568.18 45.682 1569.41 46.461 1570.02 47.609C1570.39 45.805 1571.25 44.206 1572.48 42.935C1570.96 41.582 1568.95 40.762 1566.78 40.762C1565.72 40.762 1564.65 40.967 1563.71 41.336ZM1591.12 51.135C1591.12 44.862 1596.2 39.778 1602.48 39.778C1607.48 39.778 1611.7 42.976 1613.22 47.486L1599.89 55.563C1600.67 56.014 1601.53 56.26 1602.48 56.26C1604.53 56.26 1606.29 55.03 1607.11 53.308L1607.72 53.595C1606.82 55.563 1604.81 56.916 1602.48 56.916C1601.29 56.916 1600.18 56.547 1599.28 55.932L1594.85 58.638C1596.78 60.606 1599.48 61.836 1602.48 61.836C1606.74 61.836 1610.47 59.294 1612.19 55.645L1612.77 55.932C1610.96 59.827 1607.03 62.492 1602.48 62.492C1596.2 62.492 1591.12 57.408 1591.12 51.135ZM1591.77 51.135C1591.77 52.324 1591.98 53.431 1592.31 54.497L1596.74 51.791C1596.69 51.586 1596.69 51.34 1596.69 51.135C1596.69 47.937 1599.28 45.354 1602.48 45.354C1603.66 45.354 1604.81 45.723 1605.71 46.338L1610.1 43.673C1608.17 41.664 1605.47 40.434 1602.48 40.434C1596.57 40.434 1591.77 45.231 1591.77 51.135ZM1592.55 55.112C1593 56.219 1593.62 57.244 1594.4 58.146L1598.7 55.522C1597.8 54.743 1597.15 53.677 1596.86 52.488L1592.55 55.112ZM1597.35 51.135V51.422L1605.1 46.707C1604.32 46.256 1603.42 46.01 1602.48 46.01C1599.65 46.01 1597.35 48.306 1597.35 51.135ZM1597.43 52.16C1597.68 53.349 1598.38 54.415 1599.32 55.153L1607.52 50.151C1607.27 48.962 1606.62 47.896 1605.67 47.117L1597.43 52.16ZM1606.29 46.789C1607.19 47.568 1607.85 48.593 1608.09 49.823L1612.44 47.158C1611.99 46.051 1611.33 45.067 1610.59 44.165L1606.29 46.789ZM1613.98 51.135C1613.98 44.862 1619.06 39.778 1625.34 39.778C1627.18 39.778 1628.9 40.229 1630.46 41.008V31.25H1631.12V41.377C1633.41 42.648 1635.18 44.944 1636.04 47.322V31.25H1636.69V62H1636.04V54.907C1635.22 57.244 1633.41 59.663 1631.12 60.934V62H1630.46V61.262C1628.9 62.041 1627.18 62.492 1625.34 62.492C1619.06 62.492 1613.98 57.408 1613.98 51.135ZM1614.64 51.135C1614.64 57.039 1619.43 61.836 1625.34 61.836C1627.18 61.836 1628.95 61.385 1630.46 60.565V53.841C1629.48 55.645 1627.55 56.916 1625.34 56.916C1622.14 56.916 1619.56 54.333 1619.56 51.135C1619.56 47.937 1622.14 45.354 1625.34 45.354C1627.55 45.354 1629.48 46.625 1630.46 48.47V41.746C1628.95 40.926 1627.18 40.434 1625.34 40.434C1619.43 40.434 1614.64 45.231 1614.64 51.135ZM1620.21 51.135C1620.21 53.964 1622.51 56.26 1625.34 56.26C1628.21 56.26 1630.46 53.964 1630.46 51.135C1630.46 48.306 1628.21 46.01 1625.34 46.01C1622.51 46.01 1620.21 48.306 1620.21 51.135ZM1631.12 42.115V60.155C1633.87 58.474 1636.04 55.071 1636.04 51.135C1636.04 47.199 1633.87 43.796 1631.12 42.115ZM1656.25 39.532V45.928H1659.16C1660.96 45.928 1662.36 44.534 1662.36 42.73C1662.36 40.926 1660.96 39.532 1659.16 39.532H1656.25ZM1656.25 38.876H1659.16C1661.29 38.876 1663.01 40.598 1663.01 42.73C1663.01 44.862 1661.29 46.584 1659.16 46.584H1656.25V51.504H1659.16C1664.08 51.504 1667.93 47.65 1667.93 42.73C1667.93 37.81 1664.08 33.956 1659.16 33.956H1656.25V38.876ZM1650.67 52.16V62H1650.02V33.3H1659.16C1664.41 33.3 1668.59 37.482 1668.59 42.73C1668.59 47.978 1664.41 52.16 1659.16 52.16H1656.25V62H1655.59V52.16H1650.67ZM1650.67 39.532V45.928H1655.59V39.532H1650.67ZM1655.59 33.956H1650.67V38.876H1655.59V33.956ZM1655.59 46.584H1650.67V51.504H1655.59V46.584ZM1681.07 62.492C1674.8 62.492 1669.72 57.408 1669.72 51.135C1669.72 44.862 1674.8 39.778 1681.07 39.778C1687.35 39.778 1692.43 44.862 1692.43 51.135C1692.43 57.408 1687.35 62.492 1681.07 62.492ZM1681.07 61.836C1686.98 61.836 1691.77 57.039 1691.77 51.135C1691.77 45.231 1686.98 40.434 1681.07 40.434C1675.17 40.434 1670.37 45.231 1670.37 51.135C1670.37 57.039 1675.17 61.836 1681.07 61.836ZM1681.07 56.916C1677.87 56.916 1675.29 54.333 1675.29 51.135C1675.29 47.937 1677.87 45.354 1681.07 45.354C1684.27 45.354 1686.85 47.937 1686.85 51.135C1686.85 54.333 1684.27 56.916 1681.07 56.916ZM1681.07 56.26C1683.9 56.26 1686.2 53.964 1686.2 51.135C1686.2 48.306 1683.9 46.01 1681.07 46.01C1678.24 46.01 1675.95 48.306 1675.95 51.135C1675.95 53.964 1678.24 56.26 1681.07 56.26ZM1694.14 51.135C1694.14 44.862 1699.22 39.778 1705.5 39.778C1710.5 39.778 1714.72 42.976 1716.24 47.486L1702.91 55.563C1703.69 56.014 1704.55 56.26 1705.5 56.26C1707.55 56.26 1709.31 55.03 1710.13 53.308L1710.74 53.595C1709.84 55.563 1707.83 56.916 1705.5 56.916C1704.31 56.916 1703.2 56.547 1702.3 55.932L1697.87 58.638C1699.8 60.606 1702.5 61.836 1705.5 61.836C1709.76 61.836 1713.49 59.294 1715.21 55.645L1715.79 55.932C1713.98 59.827 1710.05 62.492 1705.5 62.492C1699.22 62.492 1694.14 57.408 1694.14 51.135ZM1694.79 51.135C1694.79 52.324 1695 53.431 1695.33 54.497L1699.76 51.791C1699.71 51.586 1699.71 51.34 1699.71 51.135C1699.71 47.937 1702.3 45.354 1705.5 45.354C1706.68 45.354 1707.83 45.723 1708.73 46.338L1713.12 43.673C1711.19 41.664 1708.49 40.434 1705.5 40.434C1699.59 40.434 1694.79 45.231 1694.79 51.135ZM1695.57 55.112C1696.02 56.219 1696.64 57.244 1697.42 58.146L1701.72 55.522C1700.82 54.743 1700.17 53.677 1699.88 52.488L1695.57 55.112ZM1700.37 51.135V51.422L1708.12 46.707C1707.34 46.256 1706.44 46.01 1705.5 46.01C1702.67 46.01 1700.37 48.306 1700.37 51.135ZM1700.45 52.16C1700.7 53.349 1701.4 54.415 1702.34 55.153L1710.54 50.151C1710.29 48.962 1709.64 47.896 1708.69 47.117L1700.45 52.16ZM1709.31 46.789C1710.21 47.568 1710.87 48.593 1711.11 49.823L1715.46 47.158C1715.01 46.051 1714.35 45.067 1713.61 44.165L1709.31 46.789ZM1718.23 62V40.27H1718.89V45.969C1719.79 43.714 1721.59 41.869 1723.81 40.885V40.27H1724.46V40.639C1725.41 40.311 1726.47 40.106 1727.54 40.106C1729.92 40.106 1732.09 41.008 1733.73 42.484C1735.37 41.008 1737.54 40.106 1739.92 40.106C1745.05 40.106 1749.23 44.288 1749.23 49.413V62H1748.57V49.413C1748.57 44.657 1744.68 40.762 1739.92 40.762C1737.75 40.762 1735.74 41.582 1734.22 42.935C1735.45 44.206 1736.31 45.805 1736.68 47.609C1737.3 46.461 1738.53 45.682 1739.92 45.682C1741.97 45.682 1743.65 47.363 1743.65 49.413V62H1743V49.413C1743 47.732 1741.6 46.338 1739.92 46.338C1738.24 46.338 1736.85 47.732 1736.85 49.413V62H1736.19V49.413C1736.19 47.076 1735.25 44.944 1733.73 43.386C1732.21 44.944 1731.27 47.076 1731.27 49.413V62H1730.61V49.413C1730.61 47.732 1729.22 46.338 1727.54 46.338C1725.86 46.338 1724.46 47.732 1724.46 49.413V62H1723.81V41.623C1720.9 43.017 1718.89 46.01 1718.89 49.413V62H1718.23ZM1724.46 41.336V47.322C1725.12 46.338 1726.27 45.682 1727.54 45.682C1728.93 45.682 1730.16 46.461 1730.78 47.609C1731.15 45.805 1732.01 44.206 1733.24 42.935C1731.72 41.582 1729.71 40.762 1727.54 40.762C1726.47 40.762 1725.41 40.967 1724.46 41.336ZM1776.23 47.65C1776.23 43.263 1772.95 39.696 1768.48 39.532V55.768C1772.95 55.604 1776.23 52.037 1776.23 47.65ZM1768.48 56.424V61.344C1775.94 61.18 1781.8 55.153 1781.8 47.65C1781.8 40.188 1775.94 34.12 1768.48 33.956V38.876C1773.36 39.04 1776.88 42.935 1776.88 47.65C1776.88 52.365 1773.36 56.26 1768.48 56.424ZM1762.25 62V33.3H1768.15C1776.1 33.3 1782.46 39.737 1782.46 47.65C1782.46 55.563 1776.1 62 1768.15 62H1762.25ZM1767.82 55.768V39.532H1762.9V55.768H1767.82ZM1767.82 56.424H1762.9V61.344H1767.82V56.424ZM1767.82 38.876V33.956H1762.9V38.876H1767.82ZM1785.34 62V40.27H1785.99V62H1785.34ZM1791.57 40.27V62H1790.91V40.27H1791.57ZM1790.91 38.138V31.25H1791.57V38.138H1790.91ZM1785.99 31.25V38.138H1785.34V31.25H1785.99ZM1794.76 46.953C1794.76 42.976 1797.96 39.778 1801.94 39.778C1804.89 39.778 1807.43 41.582 1808.54 44.124L1807.92 44.411C1806.94 42.074 1804.6 40.434 1801.94 40.434C1798.33 40.434 1795.42 43.345 1795.42 46.953C1795.42 50.028 1797.51 52.57 1800.38 53.308L1802.18 53.759C1802.88 53.923 1803.37 54.579 1803.37 55.317C1803.37 56.219 1802.68 56.916 1801.77 56.916C1801.08 56.916 1800.5 56.506 1800.26 55.85L1800.87 55.604C1800.99 55.973 1801.32 56.26 1801.77 56.26C1802.31 56.26 1802.72 55.85 1802.72 55.317C1802.72 54.866 1802.47 54.497 1802.02 54.374L1800.17 53.923C1797.06 53.144 1794.76 50.315 1794.76 46.953ZM1795.17 58.187L1795.79 57.9C1796.77 60.237 1799.07 61.836 1801.77 61.836C1805.38 61.836 1808.29 58.925 1808.29 55.317C1808.29 52.242 1806.2 49.7 1803.33 48.962L1801.53 48.511C1800.79 48.306 1800.34 47.691 1800.34 46.953C1800.34 46.051 1801.04 45.354 1801.94 45.354C1802.63 45.354 1803.21 45.805 1803.41 46.42L1802.84 46.666C1802.72 46.297 1802.35 46.01 1801.94 46.01C1801.4 46.01 1800.99 46.42 1800.99 46.953C1800.99 47.404 1801.24 47.773 1801.69 47.896L1803.54 48.347C1806.69 49.126 1808.95 51.955 1808.95 55.317C1808.95 59.294 1805.75 62.492 1801.77 62.492C1798.82 62.492 1796.28 60.729 1795.17 58.187ZM1817.74 60.155V42.115C1814.99 43.796 1812.82 47.199 1812.82 51.135C1812.82 55.071 1814.99 58.474 1817.74 60.155ZM1823.52 62.492C1821.67 62.492 1819.95 62.041 1818.39 61.262V71.02H1817.74V60.893C1815.44 59.622 1813.64 57.285 1812.82 54.948V71.02H1812.16V40.27H1812.82V47.363C1813.64 44.985 1815.44 42.607 1817.74 41.336V40.27H1818.39V41.008C1819.95 40.229 1821.67 39.778 1823.52 39.778C1829.79 39.778 1834.88 44.862 1834.88 51.135C1834.88 57.408 1829.79 62.492 1823.52 62.492ZM1823.52 56.916C1821.31 56.916 1819.38 55.645 1818.39 53.8V60.524C1819.91 61.344 1821.67 61.836 1823.52 61.836C1829.42 61.836 1834.22 57.039 1834.22 51.135C1834.22 45.231 1829.42 40.434 1823.52 40.434C1821.67 40.434 1819.91 40.885 1818.39 41.705V48.429C1819.38 46.625 1821.31 45.354 1823.52 45.354C1826.72 45.354 1829.3 47.937 1829.3 51.135C1829.3 54.333 1826.72 56.916 1823.52 56.916ZM1823.52 46.01C1820.65 46.01 1818.39 48.306 1818.39 51.135C1818.39 53.964 1820.65 56.26 1823.52 56.26C1826.35 56.26 1828.64 53.964 1828.64 51.135C1828.64 48.306 1826.35 46.01 1823.52 46.01ZM1838.48 31.25V62H1837.83V31.25H1838.48ZM1844.06 31.25V62H1843.4V31.25H1844.06ZM1864.15 42.115V60.155C1866.89 58.474 1869.07 55.071 1869.07 51.135C1869.07 47.199 1866.89 43.796 1864.15 42.115ZM1858.36 39.778C1860.21 39.778 1861.93 40.229 1863.49 41.008V40.27H1864.15V41.377C1866.44 42.648 1868.2 44.944 1869.07 47.322V40.27H1869.72V62H1869.07V54.907C1868.25 57.244 1866.44 59.663 1864.15 60.934V62H1863.49V61.262C1861.93 62.041 1860.21 62.492 1858.36 62.492C1852.09 62.492 1847.01 57.408 1847.01 51.135C1847.01 44.862 1852.09 39.778 1858.36 39.778ZM1858.36 61.836C1860.21 61.836 1861.97 61.385 1863.49 60.565V53.841C1862.51 55.645 1860.58 56.916 1858.36 56.916C1855.17 56.916 1852.58 54.333 1852.58 51.135C1852.58 47.937 1855.17 45.354 1858.36 45.354C1860.58 45.354 1862.51 46.625 1863.49 48.47V41.746C1861.97 40.926 1860.21 40.434 1858.36 40.434C1852.46 40.434 1847.66 45.231 1847.66 51.135C1847.66 57.039 1852.46 61.836 1858.36 61.836ZM1858.36 56.26C1861.23 56.26 1863.49 53.964 1863.49 51.135C1863.49 48.306 1861.23 46.01 1858.36 46.01C1855.54 46.01 1853.24 48.306 1853.24 51.135C1853.24 53.964 1855.54 56.26 1858.36 56.26ZM1895.92 40.27L1881.73 71.02H1881.04L1883.58 65.526L1880.71 59.376L1875.34 71.02H1874.64L1880.38 58.597L1871.81 40.27H1872.51L1880.71 57.859L1883.54 51.75L1878.21 40.27H1878.91L1883.91 50.971L1888.83 40.27H1889.52L1884.24 51.709L1887.11 57.859L1895.22 40.27H1895.92ZM1883.95 64.747L1886.78 58.638L1883.91 52.488L1881.08 58.638L1883.95 64.747ZM1920.72 41.295L1916.13 53.882L1918.71 61.016L1923.3 48.388L1920.72 41.295ZM1924.04 48.388L1928.63 61.016L1931.22 53.882L1926.63 41.295L1924.04 48.388ZM1923.67 47.363L1926.26 40.27H1926.99L1931.59 52.898L1936.18 40.27H1936.92L1931.96 53.882L1934.54 61.016L1942.08 40.27H1942.82L1934.91 62H1934.17L1931.59 54.907L1929 62H1928.27L1923.67 49.413L1919.08 62H1918.34L1915.76 54.907L1913.18 62H1912.44L1904.53 40.27H1905.26L1912.81 61.016L1915.39 53.923L1910.43 40.27H1911.17L1915.76 52.898L1920.35 40.27H1921.09L1923.67 47.363ZM1945.05 62V40.27H1945.71V62H1945.05ZM1951.28 40.27V62H1950.63V40.27H1951.28ZM1950.63 38.138V31.25H1951.28V38.138H1950.63ZM1945.71 31.25V38.138H1945.05V31.25H1945.71ZM1957.51 40.926H1954.27V40.27H1957.51V33.3H1958.17V40.27H1963.09V33.3H1963.74V40.27H1966.98V40.926H1963.74V45.846H1966.98V46.502H1963.74V62H1963.09V46.502H1958.17V62H1957.51V46.502H1954.27V45.846H1957.51V40.926ZM1963.09 40.926H1958.17V45.846H1963.09V40.926ZM1969.96 62V31.25H1970.61V46.461C1971.51 44.124 1973.28 42.197 1975.53 41.09V31.25H1976.19V40.762C1977.34 40.311 1978.57 40.065 1979.88 40.065C1985.33 40.065 1989.8 44.534 1989.8 49.987V62H1989.14V49.987C1989.14 44.903 1984.96 40.721 1979.88 40.721C1978.57 40.721 1977.34 41.008 1976.19 41.5V47.691C1976.97 46.461 1978.32 45.641 1979.88 45.641C1982.26 45.641 1984.22 47.609 1984.22 49.987V62H1983.57V49.987C1983.57 47.978 1981.89 46.297 1979.88 46.297C1977.87 46.297 1976.19 47.978 1976.19 49.987V62H1975.53V41.828C1972.62 43.386 1970.61 46.461 1970.61 49.987V62H1969.96Z" fill="white"/>
</g>
<defs>
<clipPath id="clip0_880_619">
<rect width="1940" height="343" fill="white"/>
</clipPath>
</defs>
</svg>
